# xmcd
#
# Track frame offsets: 
#        150
#        16362
#        32465
#        49785
#        65874
#        82380
#        100423
#        117234
#        136433
#        153953
#        170109
#        187293
#        205368
#        222058
#        241799
#        260863
#
# Disc length: 3840 seconds
#
# Revision: 6
# Processed by: cddbd v1.5.2PL0 Copyright (c) Steve Scherf et al.
# Submitted via: ExactAudioCopyFreeDBPlugin 1.0
#
DISCID=f50efe10
DTITLE=Unheilig - Lichter der Stadt
DYEAR=2012
DGENRE=Gothic Rock
TTITLE0=Das Licht (Intro)
TTITLE1=Herzwerk
TTITLE2=So wie du warst
TTITLE3=Tage wie Gold
TTITLE4=Wie wir waren (Feat. Andreas Bourani)
TTITLE5=Unsterblich
TTITLE6=Feuerland
TTITLE7=Lichter der Stadt
TTITLE8=Ein guter Weg
TTITLE9=Ein großes Leben
TTITLE10=Brenne auf
TTITLE11=Zeitreise (Feat. Xavier Naidoo)
TTITLE12=Das Leben ist schön
TTITLE13=Eisenmann
TTITLE14=Vergessen
TTITLE15=Die Stadt (Instrumental)
EXTD=Limited Deluxe Edition YEAR: 2012
EXTT0=
EXTT1=
EXTT2=
EXTT3=
EXTT4=
EXTT5=
EXTT6=
EXTT7=
EXTT8=
EXTT9=
EXTT10=
EXTT11=
EXTT12=
EXTT13=
EXTT14=
EXTT15=
PLAYORDER=
